<svg width="142"
     height="150"
     viewBox="0 0 142 150"
     fill="none"
     xmlns="http://www.w3.org/2000/svg">
    <path d="M40.8571 149.625C37.9803 150.489 35.6972 149.788 33.4212 148.215C27.2859 143.985 22.4512 138.438 17.6447 132.862C12.6616 127.081 8.37817 120.811 5.35999 113.761C3.50809 109.432 2.03081 105.012 1.33105 100.286C0.878678 97.2253 0.518194 94.2001 0.723175 91.1465C1.34519 81.9929 4.27854 73.8453 11.8628 68.1137C18.8676 62.8143 26.5508 63.4519 32.6791 69.7503C34.6511 71.7766 36.6585 73.7745 38.2489 76.1337C38.2842 76.1833 38.3125 76.2471 38.3549 76.2754C42.6737 78.3442 42.6807 83.084 44.7093 86.5697C44.9143 86.9239 45.0062 87.3774 45.2819 87.6537C45.6636 88.0292 45.6636 89.014 46.4199 88.7306C46.9924 88.518 46.9571 87.7316 46.9712 87.1436C47.1267 80.9443 46.6319 74.7805 46.2714 68.5884C45.7484 59.704 45.6706 50.7913 46.4976 41.8857C46.8722 37.8261 47.4165 33.7948 48.2152 29.8273C49.4875 23.5218 51.4879 17.4288 54.9796 11.931C57.4959 7.97768 60.2384 4.24397 64.3593 1.79971C66.3596 0.609454 68.4872 -0.141538 70.8904 0.0426678C72.3535 0.156025 73.8379 0.141855 75.3081 0.0426678C79.3724 -0.24781 82.6592 1.43838 85.4724 4.12353C90.4202 8.84911 93.198 14.8075 95.262 21.2617C97.4814 28.219 97.4249 35.4314 98.2024 42.5587C98.4286 44.6346 98.9658 45.0668 100.888 44.2874C101.927 43.8623 102.938 43.3877 104.083 43.3522C104.55 43.3381 105.101 43.253 105.356 43.749C105.681 44.3795 105.122 44.7479 104.748 45.0597C103.157 46.3916 101.312 47.3197 99.5383 48.3612C99.0859 48.6304 98.1883 48.7367 98.6406 49.5515C98.987 50.1749 99.7291 49.9624 100.238 49.6861C102.161 48.6375 104.203 47.9149 106.26 47.2064C106.727 47.0434 107.321 46.6254 107.624 47.3481C107.879 47.9645 107.37 48.2974 106.882 48.5667C104.415 49.927 101.977 51.3439 99.4747 52.6404C98.1529 53.3277 97.6228 54.3337 97.6087 55.7649C97.5592 62.4671 96.0819 68.9426 94.541 75.4182C92.7951 82.758 90.5898 89.9633 87.9392 97.0127C86.7022 100.293 85.0624 103.453 82.6874 106.131C82.2775 106.591 81.924 107.172 81.0052 107.229C81.8392 103.935 82.5814 100.704 83.4861 97.5158C84.5959 93.6262 85.7904 89.7579 87.0556 85.9179C88.8581 80.4413 90.1374 74.823 91.5511 69.2473C92.4771 65.5844 93.2192 61.8932 93.608 58.1383C93.7281 56.9764 93.198 56.6505 92.1448 56.8347C91.5228 56.9409 90.7453 57.2598 90.406 56.5017C89.989 55.5877 90.9503 55.3256 91.4521 54.9147C92.1307 54.355 92.9436 53.9582 93.5938 53.3702C94.7884 52.2862 94.6117 51.0747 93.1344 50.5221C91.8692 50.0474 91.6925 49.5373 92.8446 48.7792C94.1522 47.9219 94.7177 46.6963 94.7318 45.1872C94.8096 37.989 95.0217 30.7696 93.3323 23.6989C91.7914 17.2588 89.1973 11.3571 84.4474 6.53237C81.5777 3.61342 78.0789 2.89077 74.1984 2.66405C65.8153 2.1752 61.1715 7.26919 57.3192 13.6314C52.4845 21.616 50.3852 30.4437 49.5017 39.6398C48.3919 51.2447 48.9079 62.8638 49.0352 74.483C49.0917 79.3786 48.8584 84.2742 48.7453 89.1698C48.7171 90.2326 48.3495 91.2032 47.3458 91.6566C46.2573 92.1454 45.4869 91.437 44.7023 90.7356C43.4158 89.5878 42.9847 87.9654 42.193 86.5414C38.9275 80.6751 34.6299 75.6165 29.6538 71.1531C28.2826 69.9203 26.6144 69.1481 24.7979 68.7443C19.0655 67.4761 14.57 69.7503 11.0712 74.0225C5.02071 81.4049 4.00994 89.9421 5.35293 99.1807C6.27181 105.5 8.45592 111.267 11.3045 116.822C14.0964 122.284 17.7154 127.215 21.6171 131.969C25.844 137.127 30.2122 142.129 35.2519 146.514C36.8635 147.917 38.7932 148.746 40.8712 149.646L40.8571 149.625Z"
          fill="white" />
    <path d="M138.591 76.0273C138.669 70.4232 137.029 65.3221 133.961 60.6886C131.841 57.4863 128.441 55.8355 124.737 58.0673C122.496 59.4205 122.447 61.7372 122.016 63.8981C121.917 64.4153 122.447 65.1946 121.521 65.3292C120.644 65.4567 120.51 64.642 120.333 64.0468C118.877 59.1229 122.935 54.5532 128.01 54.6311C134.039 54.7232 136.605 58.6836 138.612 63.2463C141.595 70.0264 141.977 77.2175 140.45 84.3803C139.262 89.9561 136.633 94.9934 133.198 99.556C131.572 101.717 129.183 102.135 126.766 100.817C126.405 100.619 126.03 100.442 125.67 100.243C124.581 99.6481 123.924 99.8111 123.754 101.186C123.571 102.624 122.92 103.878 121.945 104.948C121.634 105.288 121.245 105.677 120.722 105.344C120.277 105.061 120.489 104.615 120.567 104.218C121.556 99.2514 122.503 94.2778 122.913 89.2192C122.984 88.3195 123.161 87.1788 124.235 87.278C125.154 87.363 125.401 88.4683 125.458 89.3964C125.571 91.3376 125.741 93.2789 125.797 95.2201C125.84 96.8567 126.631 97.9336 128.116 98.387C129.558 98.8263 130.66 98.302 131.579 96.9984C135.976 90.6929 138.626 82.9067 138.584 76.0415L138.591 76.0273Z"
          fill="white" />
    <path d="M111.639 92.6554C112.813 90.3245 113.802 88.2699 114.891 86.2649C115.258 85.5848 115.661 84.6283 116.707 84.8976C117.718 85.1526 117.753 86.1232 117.718 86.938C117.492 91.9611 117.973 96.9489 118.361 101.944C118.425 102.758 118.354 103.602 118.227 104.409C118.1 105.231 117.796 106.265 116.877 106.251C115.803 106.237 115.704 105.096 115.562 104.239C115.477 103.722 115.506 103.184 115.513 102.652C115.527 100.35 115.562 98.047 115.562 95.7515C115.562 95.1635 115.477 94.5754 115.386 93.9945C115.343 93.7111 115.216 93.3852 114.891 93.3356C114.495 93.2718 114.445 93.6402 114.346 93.9024C113.237 96.9418 112.134 99.9812 111.038 103.021C110.961 103.24 110.968 103.495 110.883 103.708C110.572 104.466 110.289 105.486 109.349 105.415C108.225 105.337 108.218 104.246 108.155 103.354C108.091 102.355 108.105 101.341 107.943 100.364C107.822 99.6198 107.377 99.301 106.762 100.052C106.352 100.548 105.942 101.044 105.553 101.561C104.981 102.326 104.366 103.028 103.468 103.417C100.16 104.841 97.3118 102.73 97.7147 99.1239C98.1883 94.8943 99.7999 91.0472 101.758 87.3206C102.182 86.5129 102.825 85.9249 103.73 85.6486C104.529 85.4077 105.299 85.3935 105.737 86.2224C106.161 87.0088 105.921 87.9086 105.25 88.277C102.238 89.9278 101.97 92.9318 101.362 95.7869C101.199 96.5379 101.058 97.2889 100.931 98.047C100.818 98.7342 100.5 99.5702 101.298 99.9599C102.21 100.413 102.698 99.5561 103.115 98.9609C104.168 97.4731 105.129 95.9216 106.154 94.4125C106.479 93.9307 106.826 93.2647 107.299 93.116C109.229 92.4996 109.321 90.9763 109.243 89.4106C109.074 86.017 110.678 82.8288 110.36 79.421C110.332 79.088 110.416 78.6487 110.897 78.6771C111.413 78.6983 111.569 79.1376 111.59 79.5556C111.675 81.263 111.703 82.9705 111.512 84.6779C111.307 86.4916 111.159 88.3124 111.031 90.1333C110.982 90.8913 111.024 91.6565 111.639 92.6484V92.6554Z"
          fill="white" />
    <path d="M42.8221 115.858C43.0059 115.036 42.4263 113.527 43.7198 113.414C44.985 113.301 44.469 114.859 44.7871 115.66C45.0133 116.219 44.7871 117.105 45.706 117.133C46.5825 117.162 46.7662 116.411 47.0136 115.716C47.8477 113.407 48.7949 111.14 49.5936 108.816C50.159 107.179 50.986 105.507 48.9928 104.069C48.088 103.41 48.6676 102.503 49.431 102.05C50.2863 101.54 51.2546 101.412 51.9049 102.439C52.1099 102.765 52.1877 103.219 52.2018 103.623C52.3078 106.287 54.2304 108.15 56.669 107.916C59.1712 107.675 61.0018 105.217 60.6202 102.595C60.4364 101.306 59.2701 101.058 58.3866 100.555C57.6161 100.116 56.5771 99.8323 56.8103 98.7341C57.0365 97.6643 58.0332 97.4376 59.0369 97.3809C62.0762 97.2251 63.8857 98.8829 64.324 102.05C65.3701 109.581 58.1392 112.897 53.1984 110.637C51.9473 110.063 51.3819 110.417 50.7316 111.607C49.6289 113.641 49.0564 115.879 48.0173 117.927C47.3953 119.146 46.8864 120.506 45.1123 120.166C43.642 119.882 42.8363 118.614 42.808 116.659C42.808 116.425 42.808 116.184 42.808 115.858H42.8221Z"
          fill="white" />
    <path d="M23.7235 54.2343C22.324 54.1706 21.0588 53.9934 20.0975 52.7536C19.4755 51.9459 18.7616 51.6838 18.1466 52.9945C17.7366 53.8801 17.0015 54.624 16.3442 55.3679C15.6798 56.1189 14.775 56.1543 13.8985 55.8638C12.9585 55.5592 12.7818 54.709 12.7535 53.8588C12.6687 51.5421 13.4815 49.4521 14.5912 47.5037C15.5243 45.8742 16.6199 44.3297 17.7013 42.7852C18.288 41.9492 19.0584 41.3187 20.1328 41.1699C21.6666 40.9574 22.5078 41.5879 22.5643 43.1466C22.6421 45.0311 22.5926 46.9228 22.6421 48.8073C22.6915 50.6919 23.6034 51.4783 25.4482 51.287C25.5684 51.2729 25.6814 51.2304 25.7945 51.2304C26.5579 51.1949 27.6535 50.536 27.9504 51.5988C28.2543 52.6969 27.286 53.4621 26.3176 53.8092C25.5047 54.0997 24.5929 54.1068 23.7235 54.2414V54.2343ZM18.7545 43.8905C16.8814 45.7821 16.0827 48.1626 15.3122 50.5431C15.1638 51.0036 15.0436 51.7405 15.6374 51.9601C16.2806 52.201 16.535 51.4429 16.74 51.0391C17.5317 49.4733 18.2244 47.8509 18.6485 46.1364C18.8181 45.435 19.3482 44.7477 18.7545 43.8834V43.8905Z"
          fill="white" />
    <path d="M91.1765 104.87C91.3886 101.008 92.5972 97.3739 93.6858 93.711C94.541 90.8417 95.467 87.9865 96.3717 85.1313C96.5767 84.4866 96.5131 83.8489 96.3364 83.2113C96.1526 82.5312 96.2657 81.9219 96.7817 81.4259C97.4602 80.7741 98.1035 80.009 99.1991 80.2782C99.7362 80.4128 100.167 80.7529 100.224 81.3622C100.323 82.4391 99.7575 83.1971 98.8739 83.6506C97.637 84.2811 97.2411 85.2659 97.0079 86.5979C95.8699 93.0876 94.6188 99.5489 93.396 106.024C93.3323 106.372 93.2617 106.719 93.1344 107.052C92.9365 107.59 92.576 107.98 91.9399 107.867C91.3744 107.767 91.2048 107.307 91.1836 106.811C91.1482 106.166 91.1765 105.514 91.1765 104.87Z"
          fill="white" />
    <path d="M12.4213 35.24C12.704 37.5638 13.1281 39.8451 12.9797 42.1831C12.7464 45.8247 12.393 49.4805 11.8982 53.0725C11.5307 55.7293 11.043 58.5278 9.86963 61.0642C9.72826 61.3618 9.72119 61.8506 9.24054 61.7089C8.83765 61.5956 8.87299 61.1492 8.85885 60.8021C8.78817 59.2009 9.01436 57.6281 9.29709 56.0552C10.2937 50.6141 11.361 45.18 11.361 39.6113C11.361 38.0881 11.6438 36.6286 12.4284 35.24H12.4213Z"
          fill="white" />
    <path d="M66.9534 86.4633C66.8686 87.3277 66.3667 87.8307 65.8578 88.3195C63.5676 90.5017 60.7827 92.0958 58.6269 94.4408C58.118 94.9935 57.3617 95.1493 56.7043 94.6746C56.1388 94.2637 56.1742 93.5694 56.4993 93.0735C58.6057 89.8499 60.9806 86.8884 64.7905 85.5706C65.7376 85.2447 66.6706 85.2802 66.9604 86.4633H66.9534Z"
          fill="white" />
    <path d="M33.2516 106.577C31.9864 106.598 31.2159 106.457 31.018 105.507C30.8272 104.586 31.3927 104.097 32.1702 103.779C34.5098 102.822 36.9413 102.546 39.4364 102.815C40.3412 102.914 41.26 103.169 41.3095 104.31C41.359 105.451 40.4472 105.585 39.6131 105.691C37.3371 105.968 35.0328 106.024 33.2446 106.584L33.2516 106.577Z"
          fill="white" />
    <path d="M74.5094 87.6464C75.4142 87.6039 75.9372 87.6818 76.1776 88.2699C76.3967 88.8013 76.3684 89.3822 75.9019 89.7294C74.1207 91.0755 72.3183 92.3933 70.4805 93.6544C69.915 94.044 69.2082 93.9448 68.7063 93.3922C68.1692 92.7971 68.6003 92.3224 68.9608 91.8406C70.4876 89.8215 72.4526 88.4187 74.5024 87.6393L74.5094 87.6464Z"
          fill="white" />
    <path d="M35.3226 123.644C35.5417 121.923 36.7646 120.534 37.9167 119.16C38.4963 118.465 38.9558 116.871 39.9736 117.474C41.0268 118.09 40.0372 119.351 39.6909 120.3C39.2102 121.618 38.6306 122.908 38.2631 124.254C37.9874 125.267 37.6693 126.138 36.4748 125.94C35.358 125.749 35.3438 124.757 35.3297 123.652L35.3226 123.644Z"
          fill="white" />
    <path d="M74.1348 94.9296C73.4774 94.8871 73.0463 95.0004 72.8696 94.6178C72.6505 94.129 73.0816 93.8527 73.3926 93.6118C75.7959 91.7768 78.5737 91.9681 81.3374 92.2232C82.0867 92.294 82.1644 92.8041 81.6555 93.3284C81.4576 93.5338 81.1819 93.7676 80.9275 93.7818C78.5172 93.9023 76.1281 94.1432 74.1419 94.9296H74.1348Z"
          fill="white" />
    <path d="M35.047 113.067C36.0436 113.216 37.0968 113.35 38.1288 113.541C38.5529 113.619 38.8709 113.938 38.8851 114.406C38.8992 114.973 38.4398 115.029 38.0298 115.093C36.9908 115.242 35.9447 115.476 34.8986 115.49C33.9867 115.504 32.7215 115.447 32.7639 114.222C32.8063 112.975 34.0928 113.187 35.047 113.067Z"
          fill="white" />
    <path d="M123.578 80.427C124.638 80.4411 125.536 80.8591 125.437 82.021C125.338 83.1617 124.772 84.2528 123.387 84.2386C122.32 84.2244 121.683 83.5159 121.669 82.4036C121.655 81.1425 122.235 80.4057 123.578 80.427Z"
          fill="white" />
</svg>